# xmcd
#
# Track frame offsets: 
#        150
#        20524
#        37114
#        57439
#        78124
#        92510
#        107839
#        124099
#        150588
#        170524
#        183947
#        198828
#        216155
#        230121
#        250623
#        270966
#        300122
#        313850
#        330799
#
# Disc length: 4585 seconds
#
# Revision: 0
# Processed by: cddbd v1.5.2PL0 Copyright (c) Steve Scherf et al.
# Submitted via: ExactAudioCopy v1.0b6
#
DISCID=ec11e713
DTITLE=Various Artist - Buried Country 1.5
DYEAR=2015
DGENRE=
TTITLE0=Pigram Brothers - Barefoot Kid
TTITLE1=Naomi Pigram - Hurts to be Me
TTITLE2=John Williamson - Raining on the Rock
TTITLE3=Peter Brandy - Long Time Ago
TTITLE4=Kutcha Edwards - Get Back Up Again
TTITLE5=Dan Sultan - Old Fitzroy
TTITLE6=L.J. Hill - The Pretty Bird Tree
TTITLE7=Frank Yamma - She Cried
TTITLE8=Tom E. Lewis - Two Dollar
TTITLE9=John Bennett - Wangkaja
TTITLE10=Sue Ray - Red Roses
TTITLE11=Benny Walker - Time
TTITLE12=Thelma Plum - Around Here
TTITLE13=Leah Flanagan - September Song
TTITLE14=Archie Roach - Big Black Train
TTITLE15=The Painted Ladies - Stranger In My Country
TTITLE16=Glenn Skuthorpe - Great Beyonder
TTITLE17=Jimmy Little - Yorta Yorta Man
TTITLE18=Theona Councillor - Cover Me
EXTD=
EXTT0=
EXTT1=
EXTT2=
EXTT3=
EXTT4=
EXTT5=
EXTT6=
EXTT7=
EXTT8=
EXTT9=
EXTT10=
EXTT11=
EXTT12=
EXTT13=
EXTT14=
EXTT15=
EXTT16=
EXTT17=
EXTT18=
PLAYORDER=
